<?xml version="1.0" encoding="UTF-8" standalone="no"?>
<!DOCTYPE svg PUBLIC "-//W3C//DTD SVG 1.1//EN"
 "http://www.w3.org/Graphics/SVG/1.1/DTD/svg11.dtd">
<!-- Generated by graphviz version 2.40.1 (20161225.0304)
 -->
<!-- Title: %3 Pages: 1 -->
<svg width="1845pt" height="1074pt"
 viewBox="0.00 0.00 1844.63 1074.00" xmlns="http://www.w3.org/2000/svg" xmlns:xlink="http://www.w3.org/1999/xlink">
<g id="graph0" class="graph" transform="scale(1 1) rotate(0) translate(4 1070)">
<title>%3</title>
<polygon fill="#ffffff" stroke="transparent" points="-4,4 -4,-1070 1840.6294,-1070 1840.6294,4 -4,4"/>
<g id="clust1" class="cluster">
<title>cluster&#45;nid&#45;02</title>
<polygon fill="none" stroke="#cccccc" points="37.9692,-103 37.9692,-169 497.3789,-169 497.3789,-103 37.9692,-103"/>
</g>
<g id="clust2" class="cluster">
<title>cluster&#45;nid&#45;03</title>
<polygon fill="none" stroke="#cccccc" points="37.9692,-22 37.9692,-88 497.3789,-88 497.3789,-22 37.9692,-22"/>
</g>
<g id="clust5" class="cluster">
<title>cluster&#45;nid&#45;06</title>
<polygon fill="none" stroke="#cccccc" points="8,-275 8,-341 157.146,-341 157.146,-275 8,-275"/>
</g>
<g id="clust6" class="cluster">
<title>cluster&#45;nid&#45;07</title>
<polygon fill="none" stroke="#cccccc" points="1164.9476,-981 1164.9476,-1047 1539.4217,-1047 1539.4217,-981 1164.9476,-981"/>
</g>
<g id="clust7" class="cluster">
<title>cluster&#45;nid&#45;08</title>
<polygon fill="none" stroke="#cccccc" points="1459.8179,-740 1459.8179,-806 1828.6294,-806 1828.6294,-740 1459.8179,-740"/>
</g>
<g id="clust8" class="cluster">
<title>cluster&#45;nid&#45;09</title>
<polygon fill="none" stroke="#cccccc" points="1459.8179,-393 1459.8179,-459 1828.6294,-459 1828.6294,-393 1459.8179,-393"/>
</g>
<g id="clust18" class="cluster">
<title>cluster&#45;nid&#45;12&#45;out</title>
<polygon fill="none" stroke="#cccccc" points="382.6133,-888 382.6133,-968 542.1445,-968 542.1445,-888 382.6133,-888"/>
</g>
<g id="clust20" class="cluster">
<title>cluster&#45;nid&#45;13&#45;out</title>
<polygon fill="none" stroke="#cccccc" points="370.7563,-976 370.7563,-1056 554.0015,-1056 554.0015,-976 370.7563,-976"/>
</g>
<g id="clust21" class="cluster">
<title>cluster&#45;nid&#45;14&#45;in</title>
<polygon fill="none" stroke="#cccccc" points="767.6118,-184 767.6118,-264 949.6812,-264 949.6812,-184 767.6118,-184"/>
</g>
<g id="clust27" class="cluster">
<title>cluster&#45;nid&#45;18&#45;out</title>
<polygon fill="none" stroke="#cccccc" points="372.1304,-604 372.1304,-684 552.6274,-684 552.6274,-604 372.1304,-604"/>
</g>
<g id="clust29" class="cluster">
<title>cluster&#45;nid&#45;19&#45;out</title>
<polygon fill="none" stroke="#cccccc" points="372.1304,-493 372.1304,-573 552.6274,-573 552.6274,-493 372.1304,-493"/>
</g>
<g id="clust31" class="cluster">
<title>cluster&#45;nid&#45;1a&#45;out</title>
<polygon fill="none" stroke="#cccccc" points="372.1304,-359 372.1304,-439 552.6274,-439 552.6274,-359 372.1304,-359"/>
</g>
<g id="clust32" class="cluster">
<title>cluster&#45;nid&#45;1b&#45;in</title>
<polygon fill="none" stroke="#cccccc" points="768.398,-8 768.398,-88 1234.9476,-88 1234.9476,-8 768.398,-8"/>
</g>
<g id="clust33" class="cluster">
<title>cluster&#45;nid&#45;1b&#45;out</title>
<polygon fill="none" stroke="#cccccc" points="47.573,-797 47.573,-877 552.6274,-877 552.6274,-797 47.573,-797"/>
</g>
<g id="clust36" class="cluster">
<title>cluster&#45;nid&#45;1d&#45;out</title>
<polygon fill="none" stroke="#cccccc" points="357.146,-703 357.146,-783 567.6118,-783 567.6118,-703 357.146,-703"/>
</g>
<g id="clust37" class="cluster">
<title>cluster&#45;nid&#45;1e&#45;in</title>
<polygon fill="none" stroke="#cccccc" points="372.1304,-268 372.1304,-348 552.6274,-348 552.6274,-268 372.1304,-268"/>
</g>
<g id="clust41" class="cluster">
<title>cluster&#45;nid&#45;21&#45;in</title>
<polygon fill="none" stroke="#cccccc" points="767.6631,-96 767.6631,-176 949.6299,-176 949.6299,-96 767.6631,-96"/>
</g>
<g id="clust43" class="cluster">
<title>cluster&#45;nid&#45;22</title>
<polygon fill="none" stroke="#cccccc" points="770.014,-272 770.014,-580 1250.2141,-580 1250.2141,-272 770.014,-272"/>
</g>
<g id="clust44" class="cluster">
<title>cluster&#45;nid&#45;23</title>
<polygon fill="none" stroke="#cccccc" points="770.014,-588 770.014,-958 1250.2141,-958 1250.2141,-588 770.014,-588"/>
</g>
<g id="clust45" class="cluster">
<title>cluster&#45;nid&#45;24</title>
<polygon fill="none" stroke="#cccccc" points="796.9783,-970 796.9783,-1058 920.3147,-1058 920.3147,-970 796.9783,-970"/>
</g>
<!-- nid&#45;02 -->
<g id="node1" class="node">
<title>nid&#45;02</title>
<ellipse fill="none" stroke="#0000ff" cx="82.573" cy="-136" rx="36.7079" ry="25.4118"/>
<text text-anchor="middle" x="82.573" y="-138.8" font-family="Times,serif" font-size="14.00" fill="#000000">0x02</text>
<text text-anchor="middle" x="82.573" y="-124.8" font-family="Times,serif" font-size="14.00" fill="#000000">Stereo</text>
</g>
<!-- nid&#45;02&#45;ampout -->
<g id="node2" class="node">
<title>nid&#45;02&#45;ampout</title>
<polygon fill="none" stroke="#0000ff" points="489.3789,-136 448.8789,-154 448.8789,-118 489.3789,-136"/>
</g>
<!-- nid&#45;02&#45;&gt;nid&#45;02&#45;ampout -->
<g id="edge1" class="edge">
<title>nid&#45;02&#45;&gt;nid&#45;02&#45;ampout</title>
<path fill="none" stroke="#0000ff" d="M119.3355,-136C198.8485,-136 384.4215,-136 443.7725,-136"/>
<polygon fill="#0000ff" stroke="#0000ff" points="443.795,-137.7501 448.795,-136 443.7949,-134.2501 443.795,-137.7501"/>
</g>
<!-- nid&#45;14&#45;in -->
<g id="node17" class="node">
<title>nid&#45;14&#45;in</title>
<polygon fill="none" stroke="#00ff00" points="941.7158,-256 775.5771,-256 775.5771,-192 941.7158,-192 941.7158,-256"/>
<text text-anchor="middle" x="858.6465" y="-240.8" font-family="Times,serif" font-size="14.00" fill="#000000">0x14</text>
<text text-anchor="middle" x="858.6465" y="-226.8" font-family="Times,serif" font-size="14.00" fill="#000000">[Fixed] Speaker at Int N/A</text>
<text text-anchor="middle" x="858.6465" y="-212.8" font-family="Times,serif" font-size="14.00" fill="#000000">Stereo</text>
<text text-anchor="middle" x="858.6465" y="-198.8" font-family="Times,serif" font-size="14.00" fill="#000000">OUT EAPD Detect</text>
</g>
<!-- nid&#45;02&#45;ampout&#45;&gt;nid&#45;14&#45;in -->
<g id="edge9" class="edge">
<title>nid&#45;02&#45;ampout&#45;&gt;nid&#45;14&#45;in</title>
<path fill="none" stroke="#333333" d="M480.4354,-140.0098C529.9357,-151.0025 670.4277,-182.2018 765.5259,-203.3205"/>
<polygon fill="#333333" stroke="#333333" points="764.9247,-206.7722 775.4456,-205.5234 766.4423,-199.9387 764.9247,-206.7722"/>
</g>
<!-- nid&#45;1b&#45;in -->
<g id="node21" class="node">
<title>nid&#45;1b&#45;in</title>
<polygon fill="none" stroke="#00ff00" points="941.1443,-80 776.1487,-80 776.1487,-16 941.1443,-16 941.1443,-80"/>
<text text-anchor="middle" x="858.6465" y="-64.8" font-family="Times,serif" font-size="14.00" fill="#000000">0x1b</text>
<text text-anchor="middle" x="858.6465" y="-50.8" font-family="Times,serif" font-size="14.00" fill="#000000">[N/A] Speaker at Ext Rear</text>
<text text-anchor="middle" x="858.6465" y="-36.8" font-family="Times,serif" font-size="14.00" fill="#000000">Stereo</text>
<text text-anchor="middle" x="858.6465" y="-22.8" font-family="Times,serif" font-size="14.00" fill="#000000">IN OUT EAPD Detect</text>
</g>
<!-- nid&#45;02&#45;ampout&#45;&gt;nid&#45;1b&#45;in -->
<g id="edge12" class="edge">
<title>nid&#45;02&#45;ampout&#45;&gt;nid&#45;1b&#45;in</title>
<path fill="none" stroke="#333333" d="M480.4354,-131.9902C530.0819,-120.9651 671.2585,-89.6136 766.3675,-68.4926"/>
<polygon fill="#333333" stroke="#333333" points="767.2824,-71.8748 776.2858,-66.29 765.7649,-65.0412 767.2824,-71.8748"/>
</g>
<!-- nid&#45;21&#45;in -->
<g id="node27" class="node">
<title>nid&#45;21&#45;in</title>
<polygon fill="none" stroke="#00ff00" points="941.6133,-168 775.6797,-168 775.6797,-104 941.6133,-104 941.6133,-168"/>
<text text-anchor="middle" x="858.6465" y="-152.8" font-family="Times,serif" font-size="14.00" fill="#000000">0x21</text>
<text text-anchor="middle" x="858.6465" y="-138.8" font-family="Times,serif" font-size="14.00" fill="#000000">[Jack] HP Out at Ext Front</text>
<text text-anchor="middle" x="858.6465" y="-124.8" font-family="Times,serif" font-size="14.00" fill="#000000">Stereo</text>
<text text-anchor="middle" x="858.6465" y="-110.8" font-family="Times,serif" font-size="14.00" fill="#000000">OUT HP EAPD Detect</text>
</g>
<!-- nid&#45;02&#45;ampout&#45;&gt;nid&#45;21&#45;in -->
<g id="edge15" class="edge">
<title>nid&#45;02&#45;ampout&#45;&gt;nid&#45;21&#45;in</title>
<path fill="none" stroke="#c0c0c0" stroke-dasharray="5,2" d="M489.616,-136C545.515,-136 675.4743,-136 765.2193,-136"/>
<polygon fill="#c0c0c0" stroke="#c0c0c0" points="765.4098,-139.5001 775.4098,-136 765.4098,-132.5001 765.4098,-139.5001"/>
</g>
<!-- nid&#45;03 -->
<g id="node3" class="node">
<title>nid&#45;03</title>
<ellipse fill="none" stroke="#0000ff" cx="82.573" cy="-55" rx="36.7079" ry="25.4118"/>
<text text-anchor="middle" x="82.573" y="-57.8" font-family="Times,serif" font-size="14.00" fill="#000000">0x03</text>
<text text-anchor="middle" x="82.573" y="-43.8" font-family="Times,serif" font-size="14.00" fill="#000000">Stereo</text>
</g>
<!-- nid&#45;03&#45;ampout -->
<g id="node4" class="node">
<title>nid&#45;03&#45;ampout</title>
<polygon fill="none" stroke="#0000ff" points="489.3789,-55 448.8789,-73 448.8789,-37 489.3789,-55"/>
</g>
<!-- nid&#45;03&#45;&gt;nid&#45;03&#45;ampout -->
<g id="edge2" class="edge">
<title>nid&#45;03&#45;&gt;nid&#45;03&#45;ampout</title>
<path fill="none" stroke="#0000ff" d="M119.3355,-55C198.8485,-55 384.4215,-55 443.7725,-55"/>
<polygon fill="#0000ff" stroke="#0000ff" points="443.795,-56.7501 448.795,-55 443.7949,-53.2501 443.795,-56.7501"/>
</g>
<!-- nid&#45;03&#45;ampout&#45;&gt;nid&#45;1b&#45;in -->
<g id="edge13" class="edge">
<title>nid&#45;03&#45;ampout&#45;&gt;nid&#45;1b&#45;in</title>
<path fill="none" stroke="#c0c0c0" stroke-dasharray="5,2" d="M488.3791,-54.5407C543.7549,-53.5625 675.6543,-51.2325 766.0941,-49.6349"/>
<polygon fill="#c0c0c0" stroke="#c0c0c0" points="766.4226,-53.1298 776.3592,-49.4536 766.2989,-46.1309 766.4226,-53.1298"/>
</g>
<!-- nid&#45;03&#45;ampout&#45;&gt;nid&#45;21&#45;in -->
<g id="edge16" class="edge">
<title>nid&#45;03&#45;ampout&#45;&gt;nid&#45;21&#45;in</title>
<path fill="none" stroke="#333333" d="M480.9602,-58.7982C530.9115,-69.0086 670.7042,-97.5832 765.4675,-116.9535"/>
<polygon fill="#333333" stroke="#333333" points="764.8548,-120.4006 775.3532,-118.9742 766.2567,-113.5424 764.8548,-120.4006"/>
</g>
<!-- nid&#45;06 -->
<g id="node5" class="node">
<title>nid&#45;06</title>
<ellipse fill="none" stroke="#0000ff" cx="82.573" cy="-308" rx="66.6461" ry="25.4118"/>
<text text-anchor="middle" x="82.573" y="-310.8" font-family="Times,serif" font-size="14.00" fill="#000000">0x06</text>
<text text-anchor="middle" x="82.573" y="-296.8" font-family="Times,serif" font-size="14.00" fill="#000000">Stereo Digital</text>
</g>
<!-- nid&#45;1e&#45;in -->
<g id="node26" class="node">
<title>nid&#45;1e&#45;in</title>
<polygon fill="none" stroke="#00ff00" points="544.8767,-340 379.8811,-340 379.8811,-276 544.8767,-276 544.8767,-340"/>
<text text-anchor="middle" x="462.3789" y="-324.8" font-family="Times,serif" font-size="14.00" fill="#000000">0x1e</text>
<text text-anchor="middle" x="462.3789" y="-310.8" font-family="Times,serif" font-size="14.00" fill="#000000">[N/A] Speaker at Ext Rear</text>
<text text-anchor="middle" x="462.3789" y="-296.8" font-family="Times,serif" font-size="14.00" fill="#000000">Stereo Digital</text>
<text text-anchor="middle" x="462.3789" y="-282.8" font-family="Times,serif" font-size="14.00" fill="#000000">OUT Detect</text>
</g>
<!-- nid&#45;06&#45;&gt;nid&#45;1e&#45;in -->
<g id="edge14" class="edge">
<title>nid&#45;06&#45;&gt;nid&#45;1e&#45;in</title>
<path fill="none" stroke="#333333" d="M149.1648,-308C210.2773,-308 301.4064,-308 369.6347,-308"/>
<polygon fill="#333333" stroke="#333333" points="369.9539,-311.5001 379.9539,-308 369.9538,-304.5001 369.9539,-311.5001"/>
</g>
<!-- nid&#45;07 -->
<g id="node6" class="node">
<title>nid&#45;07</title>
<ellipse fill="none" stroke="#ff0000" cx="1494.8179" cy="-1014" rx="36.7079" ry="25.4118"/>
<text text-anchor="middle" x="1494.8179" y="-1016.8" font-family="Times,serif" font-size="14.00" fill="#000000">0x07</text>
<text text-anchor="middle" x="1494.8179" y="-1002.8" font-family="Times,serif" font-size="14.00" fill="#000000">Stereo</text>
</g>
<!-- nid&#45;07&#45;ampin -->
<g id="node7" class="node">
<title>nid&#45;07&#45;ampin</title>
<polygon fill="none" stroke="#c8c8c8" points="1226.9476,-1014 1186.4476,-1032 1186.4476,-996 1226.9476,-1014"/>
</g>
<!-- nid&#45;07&#45;ampin&#45;&gt;nid&#45;07 -->
<g id="edge3" class="edge">
<title>nid&#45;07&#45;ampin&#45;&gt;nid&#45;07</title>
<path fill="none" stroke="#c8c8c8" d="M1227.1598,-1014C1278.8856,-1014 1391.6991,-1014 1453.0556,-1014"/>
<polygon fill="#c8c8c8" stroke="#c8c8c8" points="1453.1057,-1015.7501 1458.1057,-1014 1453.1057,-1012.2501 1453.1057,-1015.7501"/>
</g>
<!-- nid&#45;24 -->
<g id="node8" class="node">
<title>nid&#45;24</title>
<polygon fill="none" stroke="#000000" points="912.4834,-1050 826.8409,-1050 804.8096,-978 890.452,-978 912.4834,-1050"/>
<text text-anchor="middle" x="858.6465" y="-1016.8" font-family="Times,serif" font-size="14.00" fill="#000000">0x24</text>
<text text-anchor="middle" x="858.6465" y="-1002.8" font-family="Times,serif" font-size="14.00" fill="#000000">Stereo</text>
</g>
<!-- nid&#45;24&#45;&gt;nid&#45;07&#45;ampin -->
<g id="edge4" class="edge">
<title>nid&#45;24&#45;&gt;nid&#45;07&#45;ampin</title>
<path fill="none" stroke="#333333" d="M901.5269,-1014C974.2044,-1014 1119.2267,-1014 1176.1916,-1014"/>
<polygon fill="#333333" stroke="#333333" points="1176.363,-1017.5001 1186.363,-1014 1176.3629,-1010.5001 1176.363,-1017.5001"/>
</g>
<!-- nid&#45;08 -->
<g id="node9" class="node">
<title>nid&#45;08</title>
<ellipse fill="none" stroke="#ff0000" cx="1784.0255" cy="-773" rx="36.7079" ry="25.4118"/>
<text text-anchor="middle" x="1784.0255" y="-775.8" font-family="Times,serif" font-size="14.00" fill="#000000">0x08</text>
<text text-anchor="middle" x="1784.0255" y="-761.8" font-family="Times,serif" font-size="14.00" fill="#000000">Stereo</text>
</g>
<!-- nid&#45;08&#45;ampin -->
<g id="node10" class="node">
<title>nid&#45;08&#45;ampin</title>
<polygon fill="none" stroke="#3232f1" points="1521.8179,-773 1481.3179,-791 1481.3179,-755 1521.8179,-773"/>
</g>
<!-- nid&#45;08&#45;ampin&#45;&gt;nid&#45;08 -->
<g id="edge5" class="edge">
<title>nid&#45;08&#45;ampin&#45;&gt;nid&#45;08</title>
<path fill="none" stroke="#3232f1" d="M1522.0258,-773C1572.6652,-773 1681.6899,-773 1741.9122,-773"/>
<polygon fill="#3232f1" stroke="#3232f1" points="1742.2287,-774.7501 1747.2286,-773 1742.2286,-771.2501 1742.2287,-774.7501"/>
</g>
<!-- nid&#45;23 -->
<g id="node11" class="node">
<title>nid&#45;23</title>
<polygon fill="none" stroke="#000000" points="1241.9818,-773 1220.9647,-802.2881 1178.9305,-802.2881 1157.9134,-773 1178.9305,-743.7119 1220.9647,-743.7119 1241.9818,-773"/>
<text text-anchor="middle" x="1199.9476" y="-775.8" font-family="Times,serif" font-size="14.00" fill="#000000">0x23</text>
<text text-anchor="middle" x="1199.9476" y="-761.8" font-family="Times,serif" font-size="14.00" fill="#000000">Stereo</text>
</g>
<!-- nid&#45;23&#45;&gt;nid&#45;08&#45;ampin -->
<g id="edge6" class="edge">
<title>nid&#45;23&#45;&gt;nid&#45;08&#45;ampin</title>
<path fill="none" stroke="#333333" d="M1242.1953,-773C1305.1164,-773 1421.3706,-773 1471.1701,-773"/>
<polygon fill="#333333" stroke="#333333" points="1471.277,-776.5001 1481.2769,-773 1471.2769,-769.5001 1471.277,-776.5001"/>
</g>
<!-- nid&#45;09 -->
<g id="node12" class="node">
<title>nid&#45;09</title>
<ellipse fill="none" stroke="#ff0000" cx="1784.0255" cy="-426" rx="36.7079" ry="25.4118"/>
<text text-anchor="middle" x="1784.0255" y="-428.8" font-family="Times,serif" font-size="14.00" fill="#000000">0x09</text>
<text text-anchor="middle" x="1784.0255" y="-414.8" font-family="Times,serif" font-size="14.00" fill="#000000">Stereo</text>
</g>
<!-- nid&#45;09&#45;ampin -->
<g id="node13" class="node">
<title>nid&#45;09&#45;ampin</title>
<polygon fill="none" stroke="#c8c8c8" points="1521.8179,-426 1481.3179,-444 1481.3179,-408 1521.8179,-426"/>
</g>
<!-- nid&#45;09&#45;ampin&#45;&gt;nid&#45;09 -->
<g id="edge7" class="edge">
<title>nid&#45;09&#45;ampin&#45;&gt;nid&#45;09</title>
<path fill="none" stroke="#c8c8c8" d="M1522.0258,-426C1572.6652,-426 1681.6899,-426 1741.9122,-426"/>
<polygon fill="#c8c8c8" stroke="#c8c8c8" points="1742.2287,-427.7501 1747.2286,-426 1742.2286,-424.2501 1742.2287,-427.7501"/>
</g>
<!-- nid&#45;22 -->
<g id="node14" class="node">
<title>nid&#45;22</title>
<polygon fill="none" stroke="#000000" points="1241.9818,-426 1220.9647,-455.2881 1178.9305,-455.2881 1157.9134,-426 1178.9305,-396.7119 1220.9647,-396.7119 1241.9818,-426"/>
<text text-anchor="middle" x="1199.9476" y="-428.8" font-family="Times,serif" font-size="14.00" fill="#000000">0x22</text>
<text text-anchor="middle" x="1199.9476" y="-414.8" font-family="Times,serif" font-size="14.00" fill="#000000">Stereo</text>
</g>
<!-- nid&#45;22&#45;&gt;nid&#45;09&#45;ampin -->
<g id="edge8" class="edge">
<title>nid&#45;22&#45;&gt;nid&#45;09&#45;ampin</title>
<path fill="none" stroke="#333333" d="M1242.1953,-426C1305.1164,-426 1421.3706,-426 1471.1701,-426"/>
<polygon fill="#333333" stroke="#333333" points="1471.277,-429.5001 1481.2769,-426 1471.2769,-422.5001 1471.277,-429.5001"/>
</g>
<!-- nid&#45;12&#45;out -->
<g id="node15" class="node">
<title>nid&#45;12&#45;out</title>
<polygon fill="none" stroke="#00ff00" points="533.9109,-960 390.8469,-960 390.8469,-896 533.9109,-896 533.9109,-960"/>
<text text-anchor="middle" x="462.3789" y="-944.8" font-family="Times,serif" font-size="14.00" fill="#000000">0x12</text>
<text text-anchor="middle" x="462.3789" y="-930.8" font-family="Times,serif" font-size="14.00" fill="#000000">[Fixed] Mic at Int N/A</text>
<text text-anchor="middle" x="462.3789" y="-916.8" font-family="Times,serif" font-size="14.00" fill="#000000">Stereo</text>
<text text-anchor="middle" x="462.3789" y="-902.8" font-family="Times,serif" font-size="14.00" fill="#000000">IN</text>
</g>
<!-- nid&#45;12&#45;out&#45;&gt;nid&#45;24 -->
<g id="edge39" class="edge">
<title>nid&#45;12&#45;out&#45;&gt;nid&#45;24</title>
<path fill="none" stroke="#333333" d="M534.14,-943.574C611.3063,-960.321 732.3645,-986.5937 802.7576,-1001.8707"/>
<polygon fill="#333333" stroke="#333333" points="802.2497,-1005.3419 812.7646,-1004.0425 803.7344,-998.5011 802.2497,-1005.3419"/>
</g>
<!-- nid&#45;23&#45;ampin&#45;18 -->
<g id="node38" class="node">
<title>nid&#45;23&#45;ampin&#45;18</title>
<polygon fill="none" stroke="#0000ff" points="939.4117,-928 818.2639,-950 818.2639,-906 939.4117,-928"/>
<text text-anchor="middle" x="858.6465" y="-923.8" font-family="Times,serif" font-size="14.00" fill="#000000">5 (0x12)</text>
</g>
<!-- nid&#45;12&#45;out&#45;&gt;nid&#45;23&#45;ampin&#45;18 -->
<g id="edge38" class="edge">
<title>nid&#45;12&#45;out&#45;&gt;nid&#45;23&#45;ampin&#45;18</title>
<path fill="none" stroke="#333333" d="M534.14,-928C613.1635,-928 738.2172,-928 807.7509,-928"/>
<polygon fill="#333333" stroke="#333333" points="808.0067,-931.5001 818.0067,-928 808.0066,-924.5001 808.0067,-931.5001"/>
</g>
<!-- nid&#45;13&#45;out -->
<g id="node16" class="node">
<title>nid&#45;13&#45;out</title>
<polygon fill="none" stroke="#00ff00" points="546.1242,-1048 378.6336,-1048 378.6336,-984 546.1242,-984 546.1242,-1048"/>
<text text-anchor="middle" x="462.3789" y="-1032.8" font-family="Times,serif" font-size="14.00" fill="#000000">0x13</text>
<text text-anchor="middle" x="462.3789" y="-1018.8" font-family="Times,serif" font-size="14.00" fill="#000000">[N/A] Line Out at Ext N/A</text>
<text text-anchor="middle" x="462.3789" y="-1004.8" font-family="Times,serif" font-size="14.00" fill="#000000">Stereo</text>
<text text-anchor="middle" x="462.3789" y="-990.8" font-family="Times,serif" font-size="14.00" fill="#000000">IN</text>
</g>
<!-- nid&#45;13&#45;out&#45;&gt;nid&#45;24 -->
<g id="edge40" class="edge">
<title>nid&#45;13&#45;out&#45;&gt;nid&#45;24</title>
<path fill="none" stroke="#c0c0c0" stroke-dasharray="5,2" d="M546.4171,-1015.5759C624.6988,-1015.1808 739.0261,-1014.6037 805.4289,-1014.2686"/>
<polygon fill="#c0c0c0" stroke="#c0c0c0" points="805.6797,-1017.7675 815.6618,-1014.2169 805.6443,-1010.7676 805.6797,-1017.7675"/>
</g>
<!-- nid&#45;18&#45;out -->
<g id="node18" class="node">
<title>nid&#45;18&#45;out</title>
<polygon fill="none" stroke="#00ff00" points="544.8767,-676 379.8811,-676 379.8811,-612 544.8767,-612 544.8767,-676"/>
<text text-anchor="middle" x="462.3789" y="-660.8" font-family="Times,serif" font-size="14.00" fill="#000000">0x18</text>
<text text-anchor="middle" x="462.3789" y="-646.8" font-family="Times,serif" font-size="14.00" fill="#000000">[N/A] Speaker at Ext Rear</text>
<text text-anchor="middle" x="462.3789" y="-632.8" font-family="Times,serif" font-size="14.00" fill="#000000">Stereo</text>
<text text-anchor="middle" x="462.3789" y="-618.8" font-family="Times,serif" font-size="14.00" fill="#000000">IN Detect</text>
</g>
<!-- nid&#45;22&#45;ampin&#45;24 -->
<g id="node28" class="node">
<title>nid&#45;22&#45;ampin&#45;24</title>
<polygon fill="none" stroke="#c8c8c8" points="939.4117,-426 818.2639,-448 818.2639,-404 939.4117,-426"/>
<text text-anchor="middle" x="858.6465" y="-421.8" font-family="Times,serif" font-size="14.00" fill="#000000">0 (0x18)</text>
</g>
<!-- nid&#45;18&#45;out&#45;&gt;nid&#45;22&#45;ampin&#45;24 -->
<g id="edge22" class="edge">
<title>nid&#45;18&#45;out&#45;&gt;nid&#45;22&#45;ampin&#45;24</title>
<path fill="none" stroke="#333333" d="M513.4631,-611.8488C593.3779,-561.6823 741.5588,-469.2315 767.6118,-457 780.5028,-450.9478 794.9099,-445.4872 808.3915,-440.8959"/>
<polygon fill="#333333" stroke="#333333" points="809.6174,-444.1769 818.0098,-437.7102 807.4164,-437.5319 809.6174,-444.1769"/>
</g>
<!-- nid&#45;23&#45;ampin&#45;24 -->
<g id="node33" class="node">
<title>nid&#45;23&#45;ampin&#45;24</title>
<polygon fill="none" stroke="#c8c8c8" points="939.4117,-742 818.2639,-764 818.2639,-720 939.4117,-742"/>
<text text-anchor="middle" x="858.6465" y="-737.8" font-family="Times,serif" font-size="14.00" fill="#000000">0 (0x18)</text>
</g>
<!-- nid&#45;18&#45;out&#45;&gt;nid&#45;23&#45;ampin&#45;24 -->
<g id="edge33" class="edge">
<title>nid&#45;18&#45;out&#45;&gt;nid&#45;23&#45;ampin&#45;24</title>
<path fill="none" stroke="#333333" d="M544.9672,-664.4247C624.4711,-684.0866 742.1282,-713.1841 808.4404,-729.5837"/>
<polygon fill="#333333" stroke="#333333" points="807.6869,-733.0027 818.2348,-732.0059 809.3675,-726.2074 807.6869,-733.0027"/>
</g>
<!-- nid&#45;19&#45;out -->
<g id="node19" class="node">
<title>nid&#45;19&#45;out</title>
<polygon fill="none" stroke="#00ff00" points="544.8767,-565 379.8811,-565 379.8811,-501 544.8767,-501 544.8767,-565"/>
<text text-anchor="middle" x="462.3789" y="-549.8" font-family="Times,serif" font-size="14.00" fill="#000000">0x19</text>
<text text-anchor="middle" x="462.3789" y="-535.8" font-family="Times,serif" font-size="14.00" fill="#000000">[N/A] Speaker at Ext Rear</text>
<text text-anchor="middle" x="462.3789" y="-521.8" font-family="Times,serif" font-size="14.00" fill="#000000">Stereo</text>
<text text-anchor="middle" x="462.3789" y="-507.8" font-family="Times,serif" font-size="14.00" fill="#000000">IN Detect</text>
</g>
<!-- nid&#45;22&#45;ampin&#45;25 -->
<g id="node29" class="node">
<title>nid&#45;22&#45;ampin&#45;25</title>
<polygon fill="none" stroke="#c8c8c8" points="939.4117,-364 818.2639,-386 818.2639,-342 939.4117,-364"/>
<text text-anchor="middle" x="858.6465" y="-359.8" font-family="Times,serif" font-size="14.00" fill="#000000">1 (0x19)</text>
</g>
<!-- nid&#45;19&#45;out&#45;&gt;nid&#45;22&#45;ampin&#45;25 -->
<g id="edge23" class="edge">
<title>nid&#45;19&#45;out&#45;&gt;nid&#45;22&#45;ampin&#45;25</title>
<path fill="none" stroke="#333333" d="M528.2766,-500.9811C589.5678,-471.7353 683.7807,-428.1349 767.6118,-395 780.7309,-389.8146 795.1067,-384.6752 808.4805,-380.1162"/>
<polygon fill="#333333" stroke="#333333" points="809.6496,-383.4157 818.0094,-376.9068 807.4153,-376.7819 809.6496,-383.4157"/>
</g>
<!-- nid&#45;23&#45;ampin&#45;25 -->
<g id="node34" class="node">
<title>nid&#45;23&#45;ampin&#45;25</title>
<polygon fill="none" stroke="#c8c8c8" points="939.4117,-680 818.2639,-702 818.2639,-658 939.4117,-680"/>
<text text-anchor="middle" x="858.6465" y="-675.8" font-family="Times,serif" font-size="14.00" fill="#000000">1 (0x19)</text>
</g>
<!-- nid&#45;19&#45;out&#45;&gt;nid&#45;23&#45;ampin&#45;25 -->
<g id="edge34" class="edge">
<title>nid&#45;19&#45;out&#45;&gt;nid&#45;23&#45;ampin&#45;25</title>
<path fill="none" stroke="#333333" d="M544.3539,-565.0445C605.642,-588.7851 691.6083,-621.6266 767.6118,-649 780.884,-653.7801 795.3118,-658.7817 808.6866,-663.338"/>
<polygon fill="#333333" stroke="#333333" points="807.6136,-666.6698 818.2079,-666.5674 809.8621,-660.0407 807.6136,-666.6698"/>
</g>
<!-- nid&#45;1a&#45;out -->
<g id="node20" class="node">
<title>nid&#45;1a&#45;out</title>
<polygon fill="none" stroke="#00ff00" points="544.8767,-431 379.8811,-431 379.8811,-367 544.8767,-367 544.8767,-431"/>
<text text-anchor="middle" x="462.3789" y="-415.8" font-family="Times,serif" font-size="14.00" fill="#000000">0x1a</text>
<text text-anchor="middle" x="462.3789" y="-401.8" font-family="Times,serif" font-size="14.00" fill="#000000">[N/A] Speaker at Ext Rear</text>
<text text-anchor="middle" x="462.3789" y="-387.8" font-family="Times,serif" font-size="14.00" fill="#000000">Stereo</text>
<text text-anchor="middle" x="462.3789" y="-373.8" font-family="Times,serif" font-size="14.00" fill="#000000">IN Detect</text>
</g>
<!-- nid&#45;22&#45;ampin&#45;26 -->
<g id="node30" class="node">
<title>nid&#45;22&#45;ampin&#45;26</title>
<polygon fill="none" stroke="#c8c8c8" points="938.4254,-302 818.7571,-324 818.7571,-280 938.4254,-302"/>
<text text-anchor="middle" x="858.6465" y="-297.8" font-family="Times,serif" font-size="14.00" fill="#000000">2 (0x1a)</text>
</g>
<!-- nid&#45;1a&#45;out&#45;&gt;nid&#45;22&#45;ampin&#45;26 -->
<g id="edge24" class="edge">
<title>nid&#45;1a&#45;out&#45;&gt;nid&#45;22&#45;ampin&#45;26</title>
<path fill="none" stroke="#333333" d="M544.9672,-378.7837C624.6868,-359.2696 742.767,-330.3655 808.9792,-314.1578"/>
<polygon fill="#333333" stroke="#333333" points="809.8728,-317.5424 818.7538,-311.7651 808.2084,-310.7432 809.8728,-317.5424"/>
</g>
<!-- nid&#45;23&#45;ampin&#45;26 -->
<g id="node35" class="node">
<title>nid&#45;23&#45;ampin&#45;26</title>
<polygon fill="none" stroke="#c8c8c8" points="938.4254,-618 818.7571,-640 818.7571,-596 938.4254,-618"/>
<text text-anchor="middle" x="858.6465" y="-613.8" font-family="Times,serif" font-size="14.00" fill="#000000">2 (0x1a)</text>
</g>
<!-- nid&#45;1a&#45;out&#45;&gt;nid&#45;23&#45;ampin&#45;26 -->
<g id="edge35" class="edge">
<title>nid&#45;1a&#45;out&#45;&gt;nid&#45;23&#45;ampin&#45;26</title>
<path fill="none" stroke="#333333" d="M508.9324,-431.017C567.4893,-470.3842 671.9747,-537.6645 767.6118,-584 780.6845,-590.3336 795.2615,-596.2529 808.8521,-601.3201"/>
<polygon fill="#333333" stroke="#333333" points="807.9443,-604.7145 818.5383,-604.853 810.3429,-598.1383 807.9443,-604.7145"/>
</g>
<!-- nid&#45;1b&#45;ampout -->
<g id="node22" class="node">
<title>nid&#45;1b&#45;ampout</title>
<polygon fill="none" stroke="#c8c8c8" points="1226.9476,-48 1186.4476,-66 1186.4476,-30 1226.9476,-48"/>
</g>
<!-- nid&#45;1b&#45;in&#45;&gt;nid&#45;1b&#45;ampout -->
<g id="edge10" class="edge">
<title>nid&#45;1b&#45;in&#45;&gt;nid&#45;1b&#45;ampout</title>
<path fill="none" stroke="#c8c8c8" d="M941.266,-48C1021.0778,-48 1136.2665,-48 1181.0973,-48"/>
<polygon fill="#c8c8c8" stroke="#c8c8c8" points="1181.2086,-49.7501 1186.2086,-48 1181.2086,-46.2501 1181.2086,-49.7501"/>
</g>
<!-- nid&#45;1b&#45;out -->
<g id="node23" class="node">
<title>nid&#45;1b&#45;out</title>
<polygon fill="none" stroke="#00ff00" points="544.8767,-869 379.8811,-869 379.8811,-805 544.8767,-805 544.8767,-869"/>
<text text-anchor="middle" x="462.3789" y="-853.8" font-family="Times,serif" font-size="14.00" fill="#000000">0x1b</text>
<text text-anchor="middle" x="462.3789" y="-839.8" font-family="Times,serif" font-size="14.00" fill="#000000">[N/A] Speaker at Ext Rear</text>
<text text-anchor="middle" x="462.3789" y="-825.8" font-family="Times,serif" font-size="14.00" fill="#000000">Stereo</text>
<text text-anchor="middle" x="462.3789" y="-811.8" font-family="Times,serif" font-size="14.00" fill="#000000">IN OUT EAPD Detect</text>
</g>
<!-- nid&#45;22&#45;ampin&#45;27 -->
<g id="node31" class="node">
<title>nid&#45;22&#45;ampin&#45;27</title>
<polygon fill="none" stroke="#c8c8c8" points="939.4117,-550 818.2639,-572 818.2639,-528 939.4117,-550"/>
<text text-anchor="middle" x="858.6465" y="-545.8" font-family="Times,serif" font-size="14.00" fill="#000000">3 (0x1b)</text>
</g>
<!-- nid&#45;1b&#45;out&#45;&gt;nid&#45;22&#45;ampin&#45;27 -->
<g id="edge25" class="edge">
<title>nid&#45;1b&#45;out&#45;&gt;nid&#45;22&#45;ampin&#45;27</title>
<path fill="none" stroke="#333333" d="M538.3604,-804.8563C548.5182,-799.4327 558.5459,-793.4476 567.6118,-787 670.8252,-713.595 661.3343,-652.894 767.6118,-584 779.9149,-576.0246 794.356,-569.5458 808.0656,-564.4666"/>
<polygon fill="#333333" stroke="#333333" points="809.6066,-567.6348 817.8781,-561.0142 807.2833,-561.0316 809.6066,-567.6348"/>
</g>
<!-- nid&#45;23&#45;ampin&#45;27 -->
<g id="node36" class="node">
<title>nid&#45;23&#45;ampin&#45;27</title>
<polygon fill="none" stroke="#c8c8c8" points="939.4117,-866 818.2639,-888 818.2639,-844 939.4117,-866"/>
<text text-anchor="middle" x="858.6465" y="-861.8" font-family="Times,serif" font-size="14.00" fill="#000000">3 (0x1b)</text>
</g>
<!-- nid&#45;1b&#45;out&#45;&gt;nid&#45;23&#45;ampin&#45;27 -->
<g id="edge36" class="edge">
<title>nid&#45;1b&#45;out&#45;&gt;nid&#45;23&#45;ampin&#45;27</title>
<path fill="none" stroke="#333333" d="M544.9672,-843.0441C624.3078,-848.8504 741.6451,-857.4375 808.0313,-862.2958"/>
<polygon fill="#333333" stroke="#333333" points="808.006,-865.8033 818.2348,-863.0426 808.5169,-858.8219 808.006,-865.8033"/>
</g>
<!-- nid&#45;1b&#45;ampin -->
<g id="node24" class="node">
<title>nid&#45;1b&#45;ampin</title>
<polygon fill="none" stroke="#0000ff" points="109.573,-837 69.073,-855 69.073,-819 109.573,-837"/>
</g>
<!-- nid&#45;1b&#45;ampin&#45;&gt;nid&#45;1b&#45;out -->
<g id="edge11" class="edge">
<title>nid&#45;1b&#45;ampin&#45;&gt;nid&#45;1b&#45;out</title>
<path fill="none" stroke="#0000ff" d="M109.5832,-837C164.0846,-837 289.3069,-837 374.9065,-837"/>
<polygon fill="#0000ff" stroke="#0000ff" points="374.974,-838.7501 379.974,-837 374.974,-835.2501 374.974,-838.7501"/>
</g>
<!-- nid&#45;1d&#45;out -->
<g id="node25" class="node">
<title>nid&#45;1d&#45;out</title>
<polygon fill="none" stroke="#00ff00" points="559.8453,-775 364.9125,-775 364.9125,-711 559.8453,-711 559.8453,-775"/>
<text text-anchor="middle" x="462.3789" y="-759.8" font-family="Times,serif" font-size="14.00" fill="#000000">0x1d</text>
<text text-anchor="middle" x="462.3789" y="-745.8" font-family="Times,serif" font-size="14.00" fill="#000000">[N/A] Modem Hand at Ext N/A</text>
<text text-anchor="middle" x="462.3789" y="-731.8" font-family="Times,serif" font-size="14.00" fill="#000000">Mono</text>
<text text-anchor="middle" x="462.3789" y="-717.8" font-family="Times,serif" font-size="14.00" fill="#000000">IN</text>
</g>
<!-- nid&#45;22&#45;ampin&#45;29 -->
<g id="node32" class="node">
<title>nid&#45;22&#45;ampin&#45;29</title>
<polygon fill="none" stroke="#c8c8c8" points="939.4117,-488 818.2639,-510 818.2639,-466 939.4117,-488"/>
<text text-anchor="middle" x="858.6465" y="-483.8" font-family="Times,serif" font-size="14.00" fill="#000000">4 (0x1d)</text>
</g>
<!-- nid&#45;1d&#45;out&#45;&gt;nid&#45;22&#45;ampin&#45;29 -->
<g id="edge26" class="edge">
<title>nid&#45;1d&#45;out&#45;&gt;nid&#45;22&#45;ampin&#45;29</title>
<path fill="none" stroke="#333333" d="M529.0631,-710.9829C542.1486,-703.917 555.5485,-696.1049 567.6118,-688 664.2084,-623.1 666.3265,-576.308 767.6118,-519 780.1233,-511.9209 794.5167,-506.0969 808.1106,-501.4846"/>
<polygon fill="#333333" stroke="#333333" points="809.3929,-504.7485 817.8296,-498.3397 807.2377,-498.0885 809.3929,-504.7485"/>
</g>
<!-- nid&#45;23&#45;ampin&#45;29 -->
<g id="node37" class="node">
<title>nid&#45;23&#45;ampin&#45;29</title>
<polygon fill="none" stroke="#c8c8c8" points="939.4117,-804 818.2639,-826 818.2639,-782 939.4117,-804"/>
<text text-anchor="middle" x="858.6465" y="-799.8" font-family="Times,serif" font-size="14.00" fill="#000000">4 (0x1d)</text>
</g>
<!-- nid&#45;1d&#45;out&#45;&gt;nid&#45;23&#45;ampin&#45;29 -->
<g id="edge37" class="edge">
<title>nid&#45;1d&#45;out&#45;&gt;nid&#45;23&#45;ampin&#45;29</title>
<path fill="none" stroke="#333333" d="M559.8244,-758.0004C638.4065,-770.097 745.7681,-786.6239 808.1105,-796.2207"/>
<polygon fill="#333333" stroke="#333333" points="807.6749,-799.6948 818.0911,-797.757 808.74,-792.7763 807.6749,-799.6948"/>
</g>
<!-- nid&#45;22&#45;ampin&#45;24&#45;&gt;nid&#45;22 -->
<g id="edge17" class="edge">
<title>nid&#45;22&#45;ampin&#45;24&#45;&gt;nid&#45;22</title>
<path fill="none" stroke="#c8c8c8" d="M939.5301,-426C1005.7945,-426 1097.3032,-426 1152.3434,-426"/>
<polygon fill="#c8c8c8" stroke="#c8c8c8" points="1152.554,-427.7501 1157.554,-426 1152.554,-424.2501 1152.554,-427.7501"/>
</g>
<!-- nid&#45;22&#45;ampin&#45;25&#45;&gt;nid&#45;22 -->
<g id="edge18" class="edge">
<title>nid&#45;22&#45;ampin&#45;25&#45;&gt;nid&#45;22</title>
<path fill="none" stroke="#c8c8c8" d="M899.1385,-371.3557C964.1896,-383.1727 1091.366,-406.2753 1157.5858,-418.3047"/>
<polygon fill="#c8c8c8" stroke="#c8c8c8" points="1157.4028,-420.05 1162.6351,-419.2219 1158.0284,-416.6063 1157.4028,-420.05"/>
</g>
<!-- nid&#45;22&#45;ampin&#45;26&#45;&gt;nid&#45;22 -->
<g id="edge19" class="edge">
<title>nid&#45;22&#45;ampin&#45;26&#45;&gt;nid&#45;22</title>
<path fill="none" stroke="#c8c8c8" d="M887.4173,-311.5714C905.3645,-317.5979 928.919,-325.6089 949.6812,-333 1025.2507,-359.902 1113.0165,-392.9315 1161.9554,-411.5104"/>
<polygon fill="#c8c8c8" stroke="#c8c8c8" points="1161.5625,-413.2331 1166.8581,-413.3726 1162.8053,-409.9611 1161.5625,-413.2331"/>
</g>
<!-- nid&#45;22&#45;ampin&#45;27&#45;&gt;nid&#45;22 -->
<g id="edge20" class="edge">
<title>nid&#45;22&#45;ampin&#45;27&#45;&gt;nid&#45;22</title>
<path fill="none" stroke="#c8c8c8" d="M887.4173,-540.4286C905.3645,-534.4021 928.919,-526.3911 949.6812,-519 1025.2507,-492.098 1113.0165,-459.0685 1161.9554,-440.4896"/>
<polygon fill="#c8c8c8" stroke="#c8c8c8" points="1162.8053,-442.0389 1166.8581,-438.6274 1161.5625,-438.7669 1162.8053,-442.0389"/>
</g>
<!-- nid&#45;22&#45;ampin&#45;29&#45;&gt;nid&#45;22 -->
<g id="edge21" class="edge">
<title>nid&#45;22&#45;ampin&#45;29&#45;&gt;nid&#45;22</title>
<path fill="none" stroke="#c8c8c8" d="M899.1385,-480.6443C964.1896,-468.8273 1091.366,-445.7247 1157.5858,-433.6953"/>
<polygon fill="#c8c8c8" stroke="#c8c8c8" points="1158.0284,-435.3937 1162.6351,-432.7781 1157.4028,-431.95 1158.0284,-435.3937"/>
</g>
<!-- nid&#45;23&#45;ampin&#45;24&#45;&gt;nid&#45;23 -->
<g id="edge27" class="edge">
<title>nid&#45;23&#45;ampin&#45;24&#45;&gt;nid&#45;23</title>
<path fill="none" stroke="#c8c8c8" d="M912.7267,-746.912C979.8233,-753.0064 1092.9742,-763.2837 1155.347,-768.949"/>
<polygon fill="#c8c8c8" stroke="#c8c8c8" points="1155.347,-770.7061 1160.4848,-769.4156 1155.6636,-767.2204 1155.347,-770.7061"/>
</g>
<!-- nid&#45;23&#45;ampin&#45;25&#45;&gt;nid&#45;23 -->
<g id="edge28" class="edge">
<title>nid&#45;23&#45;ampin&#45;25&#45;&gt;nid&#45;23</title>
<path fill="none" stroke="#c8c8c8" d="M891.063,-688.8331C953.6608,-705.8901 1091.0295,-743.3213 1159.4959,-761.9775"/>
<polygon fill="#c8c8c8" stroke="#c8c8c8" points="1159.4199,-763.7705 1164.7042,-763.3966 1160.3401,-760.3936 1159.4199,-763.7705"/>
</g>
<!-- nid&#45;23&#45;ampin&#45;26&#45;&gt;nid&#45;23 -->
<g id="edge29" class="edge">
<title>nid&#45;23&#45;ampin&#45;26&#45;&gt;nid&#45;23</title>
<path fill="none" stroke="#c8c8c8" d="M888.9477,-627.2122C906.8344,-632.9228 929.7947,-640.7297 949.6812,-649 1028.6205,-681.8289 1117.536,-728.2556 1165.2423,-753.978"/>
<polygon fill="#c8c8c8" stroke="#c8c8c8" points="1164.4977,-755.5648 1169.7286,-756.4015 1166.1612,-752.4853 1164.4977,-755.5648"/>
</g>
<!-- nid&#45;23&#45;ampin&#45;27&#45;&gt;nid&#45;23 -->
<g id="edge30" class="edge">
<title>nid&#45;23&#45;ampin&#45;27&#45;&gt;nid&#45;23</title>
<path fill="none" stroke="#c8c8c8" d="M891.063,-857.1669C953.6608,-840.1099 1091.0295,-802.6787 1159.4959,-784.0225"/>
<polygon fill="#c8c8c8" stroke="#c8c8c8" points="1160.3401,-785.6064 1164.7042,-782.6034 1159.4199,-782.2295 1160.3401,-785.6064"/>
</g>
<!-- nid&#45;23&#45;ampin&#45;29&#45;&gt;nid&#45;23 -->
<g id="edge31" class="edge">
<title>nid&#45;23&#45;ampin&#45;29&#45;&gt;nid&#45;23</title>
<path fill="none" stroke="#c8c8c8" d="M912.7267,-799.088C979.8233,-792.9936 1092.9742,-782.7163 1155.347,-777.051"/>
<polygon fill="#c8c8c8" stroke="#c8c8c8" points="1155.6636,-778.7796 1160.4848,-776.5844 1155.347,-775.2939 1155.6636,-778.7796"/>
</g>
<!-- nid&#45;23&#45;ampin&#45;18&#45;&gt;nid&#45;23 -->
<g id="edge32" class="edge">
<title>nid&#45;23&#45;ampin&#45;18&#45;&gt;nid&#45;23</title>
<path fill="none" stroke="#0000ff" d="M888.9477,-918.7878C906.8344,-913.0772 929.7947,-905.2703 949.6812,-897 1028.6205,-864.1711 1117.536,-817.7444 1165.2423,-792.022"/>
<polygon fill="#0000ff" stroke="#0000ff" points="1166.1612,-793.5147 1169.7286,-789.5985 1164.4977,-790.4352 1166.1612,-793.5147"/>
</g>
</g>
</svg>
